<svg width="108" height="26" viewBox="0 0 108 26" fill="none" xmlns="http://www.w3.org/2000/svg">
<g id="Group">
<g id="Group_2">
<path id="Vector" d="M32.8846 1.05664C32.8359 1.05664 32.7871 1.05664 32.7418 1.06022H45.8109V1.05664H32.8846Z" fill="#212639"/>
<path id="Vector_2" d="M47.8208 1.0603V3.79502C47.8208 5.17846 46.727 6.30095 45.379 6.30095H40.8961V23.4671H40.8821V25.09H35.2776V6.30095H28.3216V3.68062C28.3216 2.95852 28.6142 2.29718 29.074 1.82531C29.5372 1.34986 30.1677 1.0603 30.8748 1.0603H47.8208Z" fill="#212639"/>
<path id="Vector_3" d="M61.4472 8.05249V16.5712C61.4472 19.4382 61.4472 22.2766 61.4472 25.0899C60.5903 25.0899 59.7125 25.0899 58.8138 25.0899C57.9152 25.0899 57.0269 25.0899 56.1492 25.0899C56.1492 24.9362 56.1492 24.7932 56.1492 24.661C56.1492 24.5287 56.1492 24.3857 56.1492 24.232C55.571 24.6502 54.9231 24.972 54.2055 25.2043C53.488 25.4331 52.7112 25.5511 51.8787 25.5511C50.6561 25.5511 49.5833 25.2651 48.6498 24.6931C47.7197 24.1212 46.9917 23.299 46.4658 22.223C45.9398 21.1469 45.6786 19.8743 45.6786 18.4015C45.6786 16.6892 45.6786 14.9626 45.6786 13.2288V10.7908C45.6786 9.27864 46.8733 8.05607 48.3432 8.05607H50.9766V12.8677C50.9766 14.4943 50.9766 16.0993 50.9766 17.6794C50.9766 18.5588 51.1751 19.2666 51.5722 19.8064C51.9693 20.3462 52.5928 20.6143 53.4497 20.6143C54.3065 20.6143 54.9718 20.3641 55.4421 19.8564C55.9123 19.3524 56.1492 18.6267 56.1492 17.6794C56.1492 16.0993 56.1492 14.4943 56.1492 12.8677V10.7908C56.1492 9.27864 57.3439 8.05607 58.8138 8.05607L61.4472 8.05249Z" fill="#212639"/>
<path id="Vector_4" d="M103.856 6.71562C103.236 6.71562 102.671 6.5619 102.17 6.25447C101.668 5.94704 101.264 5.53951 100.964 5.03547C100.665 4.53142 100.515 3.97018 100.515 3.35532C100.515 2.74045 100.665 2.18636 100.964 1.69304C101.264 1.19972 101.665 0.799342 102.17 0.49191C102.671 0.184478 103.236 0.0307617 103.856 0.0307617C104.455 0.0307617 105.005 0.184478 105.51 0.49191C106.012 0.799342 106.412 1.19972 106.715 1.69304C107.015 2.18636 107.165 2.74403 107.165 3.35532C107.165 3.97018 107.015 4.53142 106.715 5.03547C106.416 5.53951 106.015 5.94704 105.51 6.25447C105.005 6.5619 104.455 6.71562 103.856 6.71562Z" fill="#212639"/>
<path id="Vector_5" d="M101.191 25.0899C101.191 22.2766 101.191 19.4382 101.191 16.5712C101.191 13.7042 101.191 10.8659 101.191 8.05249C102.069 8.05249 102.957 8.05249 103.856 8.05249C104.754 8.05249 105.632 8.05249 106.489 8.05249C106.489 10.8659 106.489 13.7042 106.489 16.5712V22.3874C106.489 23.8817 105.308 25.0899 103.856 25.0899C102.957 25.0899 102.069 25.0899 101.191 25.0899Z" fill="#212639"/>
<path id="Vector_6" d="M80.8244 25.09H74.5302C73.7395 23.9247 72.9349 22.745 72.1233 21.5474C71.3082 20.3499 70.5071 19.1702 69.7164 18.0048V25.09H64.4184V0.960205H67.0831C68.5391 0.960205 69.7164 2.16848 69.7164 3.66275V14.1476C70.4862 13.1359 71.256 12.1207 72.0293 11.0983C72.7991 10.0759 73.5689 9.06068 74.3421 8.04902H80.5388C79.5322 9.34667 78.5116 10.6515 77.4736 11.9706C76.4356 13.2861 75.4115 14.5945 74.4048 15.8921C75.4742 17.4078 76.5505 18.9414 77.6303 20.4893C78.7101 22.0407 79.7725 23.5743 80.8244 25.09Z" fill="#212639"/>
<path id="Vector_7" d="M99.195 25.09H92.9008C92.1101 23.9247 91.3055 22.745 90.4939 21.5474C89.6788 20.3499 88.8777 19.1702 88.087 18.0048V25.09H82.789V0.960205H85.4537C86.9097 0.960205 88.087 2.16848 88.087 3.66275V14.1476C88.8568 13.1359 89.6266 12.1207 90.3999 11.0983C91.1697 10.0759 91.9395 9.06068 92.7127 8.04902H98.9094C97.9028 9.34667 96.8822 10.6515 95.8442 11.9706C94.8062 13.2861 93.7821 14.5945 92.7754 15.8921C93.8448 17.4078 94.9211 18.9414 96.0009 20.4893C97.0807 22.0407 98.1466 23.5743 99.195 25.09Z" fill="#212639"/>
<path id="Vector_8" d="M40.8961 23.467V25.09H40.8787V23.4706L40.8961 23.467Z" fill="#212639"/>
</g>
<g id="Group_3">
<path id="Vector_9" d="M21.0695 18.0656C20.9406 18.2873 20.7839 18.491 20.6445 18.6948C20.3519 18.4016 20.0698 18.1264 19.7981 17.844C19.2234 17.2541 18.6556 16.6607 18.0809 16.0709C16.7224 14.6731 15.3639 13.279 14.009 11.8777C13.2252 11.0662 12.2952 10.5192 11.205 10.269C10.6999 10.1546 10.1913 10.1332 9.67931 10.1796C8.80153 10.2583 7.99342 10.5514 7.24104 11.0233C6.91362 11.2306 6.61754 11.4737 6.34933 11.7525C5.98359 12.1315 5.77808 12.4282 5.72235 12.5211C5.7119 12.539 5.70493 12.5497 5.70493 12.5497C5.61437 12.6927 5.52729 12.8321 5.44717 12.9787C5.06402 13.6865 4.85154 14.4479 4.80277 15.2558C4.75053 16.078 4.85502 16.8824 5.13368 17.6581C5.38796 18.3659 5.79898 18.9736 6.31798 19.5098C6.94148 20.1533 7.56498 20.7932 8.18848 21.4366C8.75625 22.0193 9.32053 22.6092 9.89527 23.1847C10.6651 23.9533 11.5289 24.5968 12.4903 25.0937C12.5042 25.1008 12.5216 25.1115 12.5565 25.1294C12.4067 25.1651 12.2778 25.2009 12.1489 25.2295C11.2886 25.419 10.4247 25.4976 9.54694 25.4404C8.65872 25.3868 7.79836 25.1794 6.9589 24.8756C4.85502 24.1106 3.2388 22.72 2.06147 20.7896C1.4101 19.7207 0.988629 18.5625 0.765702 17.3221C0.650755 16.6929 0.577607 16.0637 0.588057 15.4238C0.615923 13.8581 0.981662 12.3817 1.72011 11.009C2.77553 9.04284 4.29422 7.5879 6.30057 6.67991C7.17138 6.28668 8.0805 6.04359 9.02794 5.93635C9.64796 5.86485 10.2715 5.83983 10.895 5.89703C11.1841 5.92205 11.4767 5.96137 11.7623 6.01142C13.1486 6.24736 14.4026 6.81932 15.5625 7.61293C16.0258 7.93108 16.4507 8.29929 16.8478 8.70324C17.9659 9.84717 19.084 10.9911 20.2056 12.1315C20.756 12.6891 21.167 13.3433 21.4666 14.069C21.6582 14.5301 21.7209 15.0199 21.7348 15.5168C21.7522 16.4355 21.5258 17.2827 21.0695 18.0656Z" fill="#212639"/>
<path id="Vector_10" d="M14.7474 6.18655C15.0679 6.11505 15.3639 6.04356 15.6635 5.98636C16.3567 5.85767 17.0568 5.8255 17.7569 5.88269C19.718 6.04713 21.5084 6.69417 23.0654 7.94892C24.6537 9.2287 25.7266 10.8731 26.3222 12.8535C26.5347 13.5613 26.6427 14.2906 26.6984 15.027C26.7402 15.5882 26.7019 16.1459 26.6357 16.7072C26.4894 17.9583 26.1097 19.1344 25.5176 20.2391C24.7965 21.5796 23.8212 22.6878 22.6265 23.5958C21.5397 24.418 20.3345 24.9578 19.0074 25.2116C18.2481 25.3582 17.4852 25.4332 16.712 25.3975C16.193 25.3724 15.6774 25.3081 15.1654 25.2116C13.7512 24.9435 12.5042 24.3107 11.3687 23.4242C10.7661 22.9523 10.2331 22.4054 9.7002 21.8584C9.01748 21.1542 8.33128 20.4535 7.64857 19.7493C7.33856 19.4276 7.02507 19.1094 6.72203 18.7805C6.21696 18.23 5.86864 17.5866 5.70492 16.8502C5.5238 16.0387 5.51683 15.2236 5.72582 14.4157C5.88954 13.7723 6.17168 13.1931 6.59663 12.6891C6.61405 12.6676 6.63146 12.6462 6.65236 12.6247C6.66281 12.6355 6.67326 12.6426 6.68023 12.6498C7.90285 13.9117 9.12546 15.1771 10.3481 16.439C11.191 17.3077 12.0305 18.1728 12.8734 19.0379C13.1382 19.3096 13.4064 19.5849 13.6885 19.8351C14.3782 20.4464 15.1793 20.8468 16.071 21.0219C17.7325 21.3472 19.2338 20.9612 20.5574 19.8673C21.5989 19.0057 22.2155 17.894 22.4384 16.5499C22.6718 15.1343 22.3827 13.833 21.6059 12.639C21.3447 12.2387 21.0521 11.8669 20.7177 11.5273C19.819 10.6121 18.9273 9.69342 18.0286 8.78185C17.2553 7.99539 16.4368 7.26614 15.5207 6.65842C15.2943 6.50828 15.0574 6.37601 14.824 6.2366C14.8101 6.2223 14.7892 6.21157 14.7474 6.18655Z" fill="#212639"/>
</g>
</g>
</svg>
